<svg width="120" height="120" viewBox="0 0 120 120" fill="none" xmlns="http://www.w3.org/2000/svg">
  <defs>
    <linearGradient id="helmetGradient" x1="0%" y1="0%" x2="100%" y2="100%">
      <stop offset="0%" style="stop-color:#ffffff;stop-opacity:0.9" />
      <stop offset="50%" style="stop-color:#e0e0e0;stop-opacity:0.7" />
      <stop offset="100%" style="stop-color:#c0c0c0;stop-opacity:0.5" />
    </linearGradient>
    
    <linearGradient id="suitGradient" x1="0%" y1="0%" x2="100%" y2="100%">
      <stop offset="0%" style="stop-color:#f0f0f0;stop-opacity:0.9" />
      <stop offset="50%" style="stop-color:#d0d0d0;stop-opacity:0.8" />
      <stop offset="100%" style="stop-color:#b0b0b0;stop-opacity:0.6" />
    </linearGradient>
    
    <filter id="glow">
      <feGaussianBlur stdDeviation="2" result="coloredBlur"/>
      <feMerge> 
        <feMergeNode in="coloredBlur"/>
        <feMergeNode in="SourceGraphic"/>
      </feMerge>
    </filter>
  </defs>
  
  <!-- Helmet -->
  <circle cx="60" cy="45" r="25" fill="url(#helmetGradient)" stroke="#00d4ff" stroke-width="1" filter="url(#glow)"/>
  
  <!-- Helmet reflection -->
  <ellipse cx="55" cy="35" rx="8" ry="12" fill="#ffffff" opacity="0.3"/>
  
  <!-- Body suit -->
  <ellipse cx="60" cy="80" rx="20" ry="25" fill="url(#suitGradient)" stroke="#00d4ff" stroke-width="1"/>
  
  <!-- Arms -->
  <ellipse cx="40" cy="70" rx="8" ry="15" fill="url(#suitGradient)" transform="rotate(-20 40 70)"/>
  <ellipse cx="80" cy="70" rx="8" ry="15" fill="url(#suitGradient)" transform="rotate(20 80 70)"/>
  
  <!-- Legs -->
  <ellipse cx="52" cy="105" rx="6" ry="12" fill="url(#suitGradient)"/>
  <ellipse cx="68" cy="105" rx="6" ry="12" fill="url(#suitGradient)"/>
  
  <!-- Control panel on chest -->
  <rect x="55" y="75" width="10" height="8" rx="2" fill="#00d4ff" opacity="0.7"/>
  <circle cx="57" cy="77" r="1" fill="#ffffff"/>
  <circle cx="63" cy="77" r="1" fill="#ffffff"/>
  <rect x="56" y="80" width="8" height="1" fill="#ffffff" opacity="0.8"/>
  
  <!-- Antenna -->
  <line x1="70" y1="25" x2="75" y2="15" stroke="#00d4ff" stroke-width="2"/>
  <circle cx="75" cy="15" r="2" fill="#ff6b6b"/>
  
  <!-- Boots -->
  <ellipse cx="52" cy="115" rx="4" ry="3" fill="#333333"/>
  <ellipse cx="68" cy="115" rx="4" ry="3" fill="#333333"/>
  
  <!-- Gloves -->
  <circle cx="35" cy="80" r="3" fill="#ffffff" opacity="0.8"/>
  <circle cx="85" cy="80" r="3" fill="#ffffff" opacity="0.8"/>
  
  <!-- Helmet details -->
  <path d="M45 45 Q60 35 75 45" stroke="#00d4ff" stroke-width="0.5" fill="none" opacity="0.6"/>
  <circle cx="60" cy="45" r="20" fill="none" stroke="#ffffff" stroke-width="0.5" opacity="0.3"/>
</svg>
