<svg width="60" height="60" viewBox="0 0 60 60" fill="none" xmlns="http://www.w3.org/2000/svg">
  <defs>
    <radialGradient id="planetGradient" cx="30%" cy="30%" r="70%">
      <stop offset="0%" style="stop-color:#00d4ff;stop-opacity:0.9" />
      <stop offset="40%" style="stop-color:#0099cc;stop-opacity:0.8" />
      <stop offset="70%" style="stop-color:#005577;stop-opacity:0.7" />
      <stop offset="100%" style="stop-color:#003344;stop-opacity:0.6" />
    </radialGradient>
    
    <radialGradient id="planetShadow" cx="70%" cy="70%" r="50%">
      <stop offset="0%" style="stop-color:#000000;stop-opacity:0.0" />
      <stop offset="60%" style="stop-color:#000000;stop-opacity:0.3" />
      <stop offset="100%" style="stop-color:#000000;stop-opacity:0.6" />
    </radialGradient>
    
    <linearGradient id="ringGradient" x1="0%" y1="0%" x2="100%" y2="0%">
      <stop offset="0%" style="stop-color:#00d4ff;stop-opacity:0.8" />
      <stop offset="50%" style="stop-color:#ffffff;stop-opacity:0.9" />
      <stop offset="100%" style="stop-color:#0099cc;stop-opacity:0.6" />
    </linearGradient>
    
    <filter id="glow">
      <feGaussianBlur stdDeviation="2" result="coloredBlur"/>
      <feMerge> 
        <feMergeNode in="coloredBlur"/>
        <feMergeNode in="SourceGraphic"/>
      </feMerge>
    </filter>
    
    <filter id="softGlow">
      <feGaussianBlur stdDeviation="1" result="coloredBlur"/>
      <feMerge> 
        <feMergeNode in="coloredBlur"/>
        <feMergeNode in="SourceGraphic"/>
      </feMerge>
    </filter>
  </defs>
  
  <!-- Planet main body -->
  <circle cx="30" cy="30" r="20" fill="url(#planetGradient)" filter="url(#glow)"/>
  
  <!-- Planet shadow overlay for depth -->
  <circle cx="30" cy="30" r="20" fill="url(#planetShadow)"/>
  
  <!-- Planet surface details -->
  <ellipse cx="25" cy="25" rx="6" ry="3" fill="#003344" opacity="0.4" transform="rotate(-20 25 25)"/>
  <ellipse cx="35" cy="35" rx="4" ry="2" fill="#005577" opacity="0.5" transform="rotate(30 35 35)"/>
  <ellipse cx="28" cy="38" rx="3" ry="1.5" fill="#0099cc" opacity="0.3"/>
  
  <!-- Planet rings -->
  <ellipse cx="30" cy="30" rx="32" ry="6" fill="none" stroke="url(#ringGradient)" stroke-width="1.5" opacity="0.8" transform="rotate(-20 30 30)" filter="url(#softGlow)"/>
  <ellipse cx="30" cy="30" rx="36" ry="7" fill="none" stroke="url(#ringGradient)" stroke-width="1" opacity="0.5" transform="rotate(-20 30 30)"/>
  <ellipse cx="30" cy="30" rx="28" ry="5" fill="none" stroke="#ffffff" stroke-width="0.5" opacity="0.6" transform="rotate(-20 30 30)"/>
  
  <!-- Atmospheric glow -->
  <circle cx="30" cy="30" r="22" fill="none" stroke="#00d4ff" stroke-width="0.5" opacity="0.3"/>
  
  <!-- Small moons/satellites -->
  <circle cx="52" cy="20" r="2" fill="#ffffff" opacity="0.8" filter="url(#softGlow)"/>
  <circle cx="8" cy="40" r="1.5" fill="#0099cc" opacity="0.7"/>
  
  <!-- Distant stars -->
  <circle cx="55" cy="8" r="0.5" fill="#ffffff" opacity="0.9"/>
  <circle cx="5" cy="12" r="0.5" fill="#00d4ff" opacity="0.8"/>
  <circle cx="52" cy="52" r="0.5" fill="#ffffff" opacity="0.7"/>
  <circle cx="8" cy="55" r="0.5" fill="#0099cc" opacity="0.8"/>
  
  <!-- Ring particle effects -->
  <circle cx="15" cy="25" r="0.5" fill="#ffffff" opacity="0.6"/>
  <circle cx="45" cy="35" r="0.5" fill="#00d4ff" opacity="0.7"/>
  <circle cx="20" cy="38" r="0.5" fill="#ffffff" opacity="0.5"/>
  <circle cx="40" cy="22" r="0.5" fill="#0099cc" opacity="0.6"/>
  
  <!-- Highlight on planet surface -->
  <ellipse cx="25" cy="22" rx="4" ry="6" fill="#ffffff" opacity="0.2" transform="rotate(-30 25 22)"/>
</svg>
