<svg width="40" height="60" viewBox="0 0 40 60" fill="none" xmlns="http://www.w3.org/2000/svg">
  <defs>
    <linearGradient id="rocketBody" x1="0%" y1="0%" x2="100%" y2="100%">
      <stop offset="0%" style="stop-color:#ffffff;stop-opacity:0.9" />
      <stop offset="50%" style="stop-color:#e0e0e0;stop-opacity:0.8" />
      <stop offset="100%" style="stop-color:#c0c0c0;stop-opacity:0.7" />
    </linearGradient>
    
    <linearGradient id="rocketNose" x1="0%" y1="0%" x2="100%" y2="100%">
      <stop offset="0%" style="stop-color:#00d4ff;stop-opacity:0.9" />
      <stop offset="100%" style="stop-color:#0099cc;stop-opacity:0.7" />
    </linearGradient>
    
    <linearGradient id="flame" x1="0%" y1="0%" x2="0%" y2="100%">
      <stop offset="0%" style="stop-color:#ff6b6b;stop-opacity:0.9" />
      <stop offset="50%" style="stop-color:#ffa500;stop-opacity:0.8" />
      <stop offset="100%" style="stop-color:#ffff00;stop-opacity:0.6" />
    </linearGradient>
    
    <filter id="glow">
      <feGaussianBlur stdDeviation="1" result="coloredBlur"/>
      <feMerge> 
        <feMergeNode in="coloredBlur"/>
        <feMergeNode in="SourceGraphic"/>
      </feMerge>
    </filter>
  </defs>
  
  <!-- Rocket body -->
  <rect x="15" y="15" width="10" height="25" rx="2" fill="url(#rocketBody)" stroke="#00d4ff" stroke-width="0.5"/>
  
  <!-- Rocket nose/tip -->
  <polygon points="20,5 15,15 25,15" fill="url(#rocketNose)" filter="url(#glow)"/>
  
  <!-- Rocket fins -->
  <polygon points="12,35 15,25 15,40" fill="url(#rocketBody)"/>
  <polygon points="28,35 25,25 25,40" fill="url(#rocketBody)"/>
  
  <!-- Window -->
  <circle cx="20" cy="22" r="3" fill="#00d4ff" opacity="0.6"/>
  <circle cx="20" cy="22" r="2" fill="#ffffff" opacity="0.4"/>
  
  <!-- Engine flame -->
  <polygon points="20,55 16,40 24,40" fill="url(#flame)" filter="url(#glow)"/>
  <polygon points="20,50 17,40 23,40" fill="#ffffff" opacity="0.3"/>
  
  <!-- Body details -->
  <rect x="16" y="28" width="8" height="1" fill="#00d4ff" opacity="0.7"/>
  <rect x="16" y="32" width="8" height="1" fill="#00d4ff" opacity="0.7"/>
  <rect x="16" y="36" width="8" height="1" fill="#00d4ff" opacity="0.7"/>
  
  <!-- Side thrusters -->
  <circle cx="13" cy="30" r="1.5" fill="#ff6b6b" opacity="0.8"/>
  <circle cx="27" cy="30" r="1.5" fill="#ff6b6b" opacity="0.8"/>
  
  <!-- Stars around rocket -->
  <circle cx="8" cy="12" r="0.5" fill="#ffffff" opacity="0.8"/>
  <circle cx="32" cy="18" r="0.5" fill="#00d4ff" opacity="0.9"/>
  <circle cx="35" cy="35" r="0.5" fill="#ffffff" opacity="0.7"/>
  <circle cx="5" cy="45" r="0.5" fill="#0099cc" opacity="0.8"/>
</svg>
