<svg width="500" height="400" viewBox="0 0 500 400" fill="none" xmlns="http://www.w3.org/2000/svg">
  <!-- Background gradient -->
  <defs>
    <radialGradient id="spaceGradient" cx="50%" cy="50%" r="50%">
      <stop offset="0%" style="stop-color:#1a1a2e;stop-opacity:0.8" />
      <stop offset="70%" style="stop-color:#16213e;stop-opacity:0.6" />
      <stop offset="100%" style="stop-color:#0c0c1e;stop-opacity:0.4" />
    </radialGradient>
    
    <linearGradient id="planetGradient" x1="0%" y1="0%" x2="100%" y2="100%">
      <stop offset="0%" style="stop-color:#00d4ff;stop-opacity:0.8" />
      <stop offset="50%" style="stop-color:#0099cc;stop-opacity:0.6" />
      <stop offset="100%" style="stop-color:#005577;stop-opacity:0.4" />
    </linearGradient>
    
    <filter id="glow">
      <feGaussianBlur stdDeviation="3" result="coloredBlur"/>
      <feMerge> 
        <feMergeNode in="coloredBlur"/>
        <feMergeNode in="SourceGraphic"/>
      </feMerge>
    </filter>
  </defs>
  
  <!-- Background circle -->
  <circle cx="250" cy="200" r="180" fill="url(#spaceGradient)" opacity="0.3"/>
  
  <!-- Main planet -->
  <circle cx="250" cy="200" r="80" fill="url(#planetGradient)" filter="url(#glow)" opacity="0.8"/>
  
  <!-- Planet rings -->
  <ellipse cx="250" cy="200" rx="120" ry="20" fill="none" stroke="#00d4ff" stroke-width="2" opacity="0.6" transform="rotate(-15 250 200)"/>
  <ellipse cx="250" cy="200" rx="140" ry="25" fill="none" stroke="#0099cc" stroke-width="1.5" opacity="0.4" transform="rotate(-15 250 200)"/>
  
  <!-- Small planets/moons -->
  <circle cx="150" cy="120" r="12" fill="#00d4ff" opacity="0.7" filter="url(#glow)"/>
  <circle cx="380" cy="280" r="8" fill="#0099cc" opacity="0.6"/>
  <circle cx="100" cy="300" r="6" fill="#005577" opacity="0.5"/>
  
  <!-- Stars -->
  <circle cx="80" cy="80" r="2" fill="#ffffff" opacity="0.8"/>
  <circle cx="420" cy="60" r="1.5" fill="#ffffff" opacity="0.9"/>
  <circle cx="450" cy="150" r="1" fill="#ffffff" opacity="0.7"/>
  <circle cx="50" cy="200" r="1.5" fill="#00d4ff" opacity="0.8"/>
  <circle cx="400" cy="350" r="1" fill="#0099cc" opacity="0.6"/>
  <circle cx="120" cy="350" r="2" fill="#ffffff" opacity="0.8"/>
  <circle cx="480" cy="250" r="1" fill="#ffffff" opacity="0.7"/>
  
  <!-- Constellation lines -->
  <path d="M80 80 L120 350 L150 120" stroke="#ffffff" stroke-width="0.5" opacity="0.3" fill="none"/>
  <path d="M420 60 L450 150 L480 250" stroke="#00d4ff" stroke-width="0.5" opacity="0.4" fill="none"/>
  
  <!-- Orbital paths -->
  <circle cx="250" cy="200" r="180" fill="none" stroke="#00d4ff" stroke-width="0.5" opacity="0.2" stroke-dasharray="5,10"/>
  <circle cx="250" cy="200" r="220" fill="none" stroke="#0099cc" stroke-width="0.5" opacity="0.1" stroke-dasharray="8,15"/>
  
  <!-- Space dust/nebula -->
  <ellipse cx="100" cy="100" rx="40" ry="20" fill="#00d4ff" opacity="0.1" transform="rotate(45 100 100)"/>
  <ellipse cx="380" cy="320" rx="50" ry="25" fill="#0099cc" opacity="0.08" transform="rotate(-30 380 320)"/>
</svg>
